{
    "asset" : {
        "generator" : "Khronos glTF Blender I/O v1.6.16",
        "version" : "2.0"
    },
    "scene" : 0,
    "scenes" : [
        {
            "name" : "Scene",
            "nodes" : [
                0,
                1,
                2,
                3,
                4,
                5
            ]
        }
    ],
    "nodes" : [
        {
            "mesh" : 0,
            "name" : "seat",
            "rotation" : [
                0,
                0.0006762421689927578,
                0,
                1
            ],
            "scale" : [
                1,
                1.2185121774673462,
                1
            ],
            "translation" : [
                0.0011743265204131603,
                0.016227753832936287,
                0.028910642489790916
            ]
        },
        {
            "mesh" : 1,
            "name" : "back",
            "rotation" : [
                0,
                0.0006762421689927578,
                0,
                1
            ],
            "scale" : [
                1,
                0.8310988545417786,
                1
            ],
            "translation" : [
                0.0009232605807483196,
                0.29548588395118713,
                -0.1566394716501236
            ]
        },
        {
            "mesh" : 2,
            "name" : "leg02.001",
            "rotation" : [
                0,
                0.0006762421689927578,
                0,
                1
            ],
            "translation" : [
                -0.19554448127746582,
                -0.036563124507665634,
                -0.1629249006509781
            ]
        },
        {
            "mesh" : 3,
            "name" : "leg01.001",
            "rotation" : [
                0,
                0.0006762421689927578,
                0,
                1
            ],
            "translation" : [
                0.19293148815631866,
                -0.036563124507665634,
                -0.16345037519931793
            ]
        },
        {
            "mesh" : 4,
            "name" : "leg03.001",
            "rotation" : [
                0,
                0.0006762421689927578,
                0,
                1
            ],
            "scale" : [
                1,
                0.6379615664482117,
                1
            ],
            "translation" : [
                0.19346001744270325,
                -0.12140786647796631,
                0.22729824483394623
            ]
        },
        {
            "mesh" : 5,
            "name" : "leg04.001",
            "rotation" : [
                0,
                0.0006762421689927578,
                0,
                1
            ],
            "scale" : [
                1,
                0.6379615664482117,
                1
            ],
            "translation" : [
                -0.195016011595726,
                -0.12140786647796631,
                0.22782371938228607
            ]
        }
    ],
    "materials" : [
        {
            "doubleSided" : true,
            "name" : "material02",
            "pbrMetallicRoughness" : {
                "baseColorFactor" : [
                    0,
                    0,
                    0,
                    1
                ],
                "metallicFactor" : 0
            }
        },
        {
            "doubleSided" : true,
            "name" : "material01",
            "pbrMetallicRoughness" : {
                "metallicFactor" : 0
            }
        }
    ],
    "meshes" : [
        {
            "name" : "\u7acb\u65b9\u4f53.004",
            "primitives" : [
                {
                    "attributes" : {
                        "POSITION" : 0,
                        "NORMAL" : 1,
                        "TEXCOORD_0" : 2
                    },
                    "indices" : 3,
                    "material" : 0
                }
            ]
        },
        {
            "name" : "\u7acb\u65b9\u4f53.006",
            "primitives" : [
                {
                    "attributes" : {
                        "POSITION" : 4,
                        "NORMAL" : 5,
                        "TEXCOORD_0" : 6
                    },
                    "indices" : 7,
                    "material" : 1
                }
            ]
        },
        {
            "name" : "\u7acb\u65b9\u4f53.007",
            "primitives" : [
                {
                    "attributes" : {
                        "POSITION" : 8,
                        "NORMAL" : 9,
                        "TEXCOORD_0" : 10
                    },
                    "indices" : 11,
                    "material" : 1
                }
            ]
        },
        {
            "name" : "\u7acb\u65b9\u4f53.008",
            "primitives" : [
                {
                    "attributes" : {
                        "POSITION" : 12,
                        "NORMAL" : 13,
                        "TEXCOORD_0" : 14
                    },
                    "indices" : 11,
                    "material" : 1
                }
            ]
        },
        {
            "name" : "\u7acb\u65b9\u4f53.009",
            "primitives" : [
                {
                    "attributes" : {
                        "POSITION" : 15,
                        "NORMAL" : 16,
                        "TEXCOORD_0" : 17
                    },
                    "indices" : 11,
                    "material" : 1
                }
            ]
        },
        {
            "name" : "\u7acb\u65b9\u4f53.010",
            "primitives" : [
                {
                    "attributes" : {
                        "POSITION" : 18,
                        "NORMAL" : 19,
                        "TEXCOORD_0" : 20
                    },
                    "indices" : 11,
                    "material" : 1
                }
            ]
        }
    ],
    "accessors" : [
        {
            "bufferView" : 0,
            "componentType" : 5126,
            "count" : 358,
            "max" : [
                0.2575821876525879,
                0.04890049993991852,
                0.2575821876525879
            ],
            "min" : [
                -0.2575821876525879,
                -0.04890049993991852,
                -0.2575821876525879
            ],
            "type" : "VEC3"
        },
        {
            "bufferView" : 1,
            "componentType" : 5126,
            "count" : 358,
            "type" : "VEC3"
        },
        {
            "bufferView" : 2,
            "componentType" : 5126,
            "count" : 358,
            "type" : "VEC2"
        },
        {
            "bufferView" : 3,
            "componentType" : 5123,
            "count" : 1764,
            "type" : "SCALAR"
        },
        {
            "bufferView" : 4,
            "componentType" : 5126,
            "count" : 358,
            "max" : [
                0.2575821876525879,
                0.15793859958648682,
                0.04890049993991852
            ],
            "min" : [
                -0.2575821876525879,
                -0.15793859958648682,
                -0.04890049993991852
            ],
            "type" : "VEC3"
        },
        {
            "bufferView" : 5,
            "componentType" : 5126,
            "count" : 358,
            "type" : "VEC3"
        },
        {
            "bufferView" : 6,
            "componentType" : 5126,
            "count" : 358,
            "type" : "VEC2"
        },
        {
            "bufferView" : 7,
            "componentType" : 5123,
            "count" : 1764,
            "type" : "SCALAR"
        },
        {
            "bufferView" : 8,
            "componentType" : 5126,
            "count" : 355,
            "max" : [
                0.03519296646118164,
                0.237289696931839,
                0.03519296646118164
            ],
            "min" : [
                -0.03519296646118164,
                -0.237289696931839,
                -0.03519296646118164
            ],
            "type" : "VEC3"
        },
        {
            "bufferView" : 9,
            "componentType" : 5126,
            "count" : 355,
            "type" : "VEC3"
        },
        {
            "bufferView" : 10,
            "componentType" : 5126,
            "count" : 355,
            "type" : "VEC2"
        },
        {
            "bufferView" : 11,
            "componentType" : 5123,
            "count" : 1764,
            "type" : "SCALAR"
        },
        {
            "bufferView" : 12,
            "componentType" : 5126,
            "count" : 355,
            "max" : [
                0.03519296646118164,
                0.237289696931839,
                0.03519296646118164
            ],
            "min" : [
                -0.03519296646118164,
                -0.237289696931839,
                -0.03519296646118164
            ],
            "type" : "VEC3"
        },
        {
            "bufferView" : 13,
            "componentType" : 5126,
            "count" : 355,
            "type" : "VEC3"
        },
        {
            "bufferView" : 14,
            "componentType" : 5126,
            "count" : 355,
            "type" : "VEC2"
        },
        {
            "bufferView" : 15,
            "componentType" : 5126,
            "count" : 355,
            "max" : [
                0.03519296646118164,
                0.237289696931839,
                0.03519296646118164
            ],
            "min" : [
                -0.03519296646118164,
                -0.237289696931839,
                -0.03519296646118164
            ],
            "type" : "VEC3"
        },
        {
            "bufferView" : 16,
            "componentType" : 5126,
            "count" : 355,
            "type" : "VEC3"
        },
        {
            "bufferView" : 17,
            "componentType" : 5126,
            "count" : 355,
            "type" : "VEC2"
        },
        {
            "bufferView" : 18,
            "componentType" : 5126,
            "count" : 355,
            "max" : [
                0.03519296646118164,
                0.237289696931839,
                0.03519296646118164
            ],
            "min" : [
                -0.03519296646118164,
                -0.237289696931839,
                -0.03519296646118164
            ],
            "type" : "VEC3"
        },
        {
            "bufferView" : 19,
            "componentType" : 5126,
            "count" : 355,
            "type" : "VEC3"
        },
        {
            "bufferView" : 20,
            "componentType" : 5126,
            "count" : 355,
            "type" : "VEC2"
        }
    ],
    "bufferViews" : [
        {
            "buffer" : 0,
            "byteLength" : 4296,
            "byteOffset" : 0
        },
        {
            "buffer" : 0,
            "byteLength" : 4296,
            "byteOffset" : 4296
        },
        {
            "buffer" : 0,
            "byteLength" : 2864,
            "byteOffset" : 8592
        },
        {
            "buffer" : 0,
            "byteLength" : 3528,
            "byteOffset" : 11456
        },
        {
            "buffer" : 0,
            "byteLength" : 4296,
            "byteOffset" : 14984
        },
        {
            "buffer" : 0,
            "byteLength" : 4296,
            "byteOffset" : 19280
        },
        {
            "buffer" : 0,
            "byteLength" : 2864,
            "byteOffset" : 23576
        },
        {
            "buffer" : 0,
            "byteLength" : 3528,
            "byteOffset" : 26440
        },
        {
            "buffer" : 0,
            "byteLength" : 4260,
            "byteOffset" : 29968
        },
        {
            "buffer" : 0,
            "byteLength" : 4260,
            "byteOffset" : 34228
        },
        {
            "buffer" : 0,
            "byteLength" : 2840,
            "byteOffset" : 38488
        },
        {
            "buffer" : 0,
            "byteLength" : 3528,
            "byteOffset" : 41328
        },
        {
            "buffer" : 0,
            "byteLength" : 4260,
            "byteOffset" : 44856
        },
        {
            "buffer" : 0,
            "byteLength" : 4260,
            "byteOffset" : 49116
        },
        {
            "buffer" : 0,
            "byteLength" : 2840,
            "byteOffset" : 53376
        },
        {
            "buffer" : 0,
            "byteLength" : 4260,
            "byteOffset" : 56216
        },
        {
            "buffer" : 0,
            "byteLength" : 4260,
            "byteOffset" : 60476
        },
        {
            "buffer" : 0,
            "byteLength" : 2840,
            "byteOffset" : 64736
        },
        {
            "buffer" : 0,
            "byteLength" : 4260,
            "byteOffset" : 67576
        },
        {
            "buffer" : 0,
            "byteLength" : 4260,
            "byteOffset" : 71836
        },
        {
            "buffer" : 0,
            "byteLength" : 2840,
            "byteOffset" : 76096
        }
    ],
    "buffers" : [
        {
            "byteLength" : 78936,
            "uri" : "data:application/octet-stream;base64,"
        }
    ]
}
