{
    "asset" : {
        "generator" : "Khronos glTF Blender I/O v1.6.16",
        "version" : "2.0"
    },
    "scene" : 0,
    "scenes" : [
        {
            "name" : "Scene",
            "nodes" : [
                0,
                1,
                2,
                3,
                4,
                5
            ]
        }
    ],
    "nodes" : [
        {
            "mesh" : 0,
            "name" : "leg01",
            "translation" : [
                -0.6783716678619385,
                -0.1356172114610672,
                -0.37658819556236267
            ]
        },
        {
            "mesh" : 1,
            "name" : "leg02",
            "translation" : [
                0.6793433427810669,
                -0.1356172114610672,
                -0.37658819556236267
            ]
        },
        {
            "mesh" : 2,
            "name" : "leg03",
            "translation" : [
                -0.6783716678619385,
                -0.1356172114610672,
                0.3781541883945465
            ]
        },
        {
            "mesh" : 3,
            "name" : "leg04",
            "translation" : [
                0.6793433427810669,
                -0.1356172114610672,
                0.3781541883945465
            ]
        },
        {
            "mesh" : 4,
            "name" : "top01",
            "translation" : [
                -0.001773245632648468,
                0.2170998901128769,
                -0.0006111366674304008
            ]
        },
        {
            "mesh" : 5,
            "name" : "top02",
            "scale" : [
                0.6781794428825378,
                0.26149991154670715,
                0.6249138712882996
            ],
            "translation" : [
                -0.001773245632648468,
                0.33063971996307373,
                -0.0006111366674304008
            ]
        }
    ],
    "materials" : [
        {
            "doubleSided" : true,
            "name" : "material01",
            "pbrMetallicRoughness" : {
                "metallicFactor" : 0
            }
        },
        {
            "doubleSided" : true,
            "name" : "material02",
            "pbrMetallicRoughness" : {
                "baseColorFactor" : [
                    0,
                    0,
                    0,
                    1
                ],
                "metallicFactor" : 0
            }
        }
    ],
    "meshes" : [
        {
            "name" : "\u7acb\u65b9\u4f53",
            "primitives" : [
                {
                    "attributes" : {
                        "POSITION" : 0,
                        "NORMAL" : 1,
                        "TEXCOORD_0" : 2
                    },
                    "indices" : 3,
                    "material" : 0
                }
            ]
        },
        {
            "name" : "\u7acb\u65b9\u4f53.001",
            "primitives" : [
                {
                    "attributes" : {
                        "POSITION" : 4,
                        "NORMAL" : 5,
                        "TEXCOORD_0" : 6
                    },
                    "indices" : 3,
                    "material" : 0
                }
            ]
        },
        {
            "name" : "\u7acb\u65b9\u4f53.002",
            "primitives" : [
                {
                    "attributes" : {
                        "POSITION" : 7,
                        "NORMAL" : 8,
                        "TEXCOORD_0" : 9
                    },
                    "indices" : 3,
                    "material" : 0
                }
            ]
        },
        {
            "name" : "\u7acb\u65b9\u4f53.003",
            "primitives" : [
                {
                    "attributes" : {
                        "POSITION" : 10,
                        "NORMAL" : 11,
                        "TEXCOORD_0" : 12
                    },
                    "indices" : 3,
                    "material" : 0
                }
            ]
        },
        {
            "name" : "\u7acb\u65b9\u4f53.005",
            "primitives" : [
                {
                    "attributes" : {
                        "POSITION" : 13,
                        "NORMAL" : 14,
                        "TEXCOORD_0" : 15
                    },
                    "indices" : 16,
                    "material" : 0
                }
            ]
        },
        {
            "name" : "\u7acb\u65b9\u4f53.011",
            "primitives" : [
                {
                    "attributes" : {
                        "POSITION" : 17,
                        "NORMAL" : 18,
                        "TEXCOORD_0" : 19
                    },
                    "indices" : 20,
                    "material" : 1
                }
            ]
        }
    ],
    "accessors" : [
        {
            "bufferView" : 0,
            "componentType" : 5126,
            "count" : 363,
            "max" : [
                0.07500000298023224,
                0.3204461932182312,
                0.07500000298023224
            ],
            "min" : [
                -0.07500000298023224,
                -0.3204461932182312,
                -0.07500000298023224
            ],
            "type" : "VEC3"
        },
        {
            "bufferView" : 1,
            "componentType" : 5126,
            "count" : 363,
            "type" : "VEC3"
        },
        {
            "bufferView" : 2,
            "componentType" : 5126,
            "count" : 363,
            "type" : "VEC2"
        },
        {
            "bufferView" : 3,
            "componentType" : 5123,
            "count" : 1764,
            "type" : "SCALAR"
        },
        {
            "bufferView" : 4,
            "componentType" : 5126,
            "count" : 363,
            "max" : [
                0.07500000298023224,
                0.3204461932182312,
                0.07500000298023224
            ],
            "min" : [
                -0.07500000298023224,
                -0.3204461932182312,
                -0.07500000298023224
            ],
            "type" : "VEC3"
        },
        {
            "bufferView" : 5,
            "componentType" : 5126,
            "count" : 363,
            "type" : "VEC3"
        },
        {
            "bufferView" : 6,
            "componentType" : 5126,
            "count" : 363,
            "type" : "VEC2"
        },
        {
            "bufferView" : 7,
            "componentType" : 5126,
            "count" : 363,
            "max" : [
                0.07500000298023224,
                0.3204461932182312,
                0.07500000298023224
            ],
            "min" : [
                -0.07500000298023224,
                -0.3204461932182312,
                -0.07500000298023224
            ],
            "type" : "VEC3"
        },
        {
            "bufferView" : 8,
            "componentType" : 5126,
            "count" : 363,
            "type" : "VEC3"
        },
        {
            "bufferView" : 9,
            "componentType" : 5126,
            "count" : 363,
            "type" : "VEC2"
        },
        {
            "bufferView" : 10,
            "componentType" : 5126,
            "count" : 363,
            "max" : [
                0.07500000298023224,
                0.3204461932182312,
                0.07500000298023224
            ],
            "min" : [
                -0.07500000298023224,
                -0.3204461932182312,
                -0.07500000298023224
            ],
            "type" : "VEC3"
        },
        {
            "bufferView" : 11,
            "componentType" : 5126,
            "count" : 363,
            "type" : "VEC3"
        },
        {
            "bufferView" : 12,
            "componentType" : 5126,
            "count" : 363,
            "type" : "VEC2"
        },
        {
            "bufferView" : 13,
            "componentType" : 5126,
            "count" : 1176,
            "max" : [
                0.800000011920929,
                0.11443500220775604,
                0.5
            ],
            "min" : [
                -0.800000011920929,
                -0.11443500220775604,
                -0.5
            ],
            "type" : "VEC3"
        },
        {
            "bufferView" : 14,
            "componentType" : 5126,
            "count" : 1176,
            "type" : "VEC3"
        },
        {
            "bufferView" : 15,
            "componentType" : 5126,
            "count" : 1176,
            "type" : "VEC2"
        },
        {
            "bufferView" : 16,
            "componentType" : 5123,
            "count" : 1764,
            "type" : "SCALAR"
        },
        {
            "bufferView" : 17,
            "componentType" : 5126,
            "count" : 24,
            "max" : [
                0.800000011920929,
                0.11443500220775604,
                0.5
            ],
            "min" : [
                -0.800000011920929,
                -0.11443500220775604,
                -0.5
            ],
            "type" : "VEC3"
        },
        {
            "bufferView" : 18,
            "componentType" : 5126,
            "count" : 24,
            "type" : "VEC3"
        },
        {
            "bufferView" : 19,
            "componentType" : 5126,
            "count" : 24,
            "type" : "VEC2"
        },
        {
            "bufferView" : 20,
            "componentType" : 5123,
            "count" : 36,
            "type" : "SCALAR"
        }
    ],
    "bufferViews" : [
        {
            "buffer" : 0,
            "byteLength" : 4356,
            "byteOffset" : 0
        },
        {
            "buffer" : 0,
            "byteLength" : 4356,
            "byteOffset" : 4356
        },
        {
            "buffer" : 0,
            "byteLength" : 2904,
            "byteOffset" : 8712
        },
        {
            "buffer" : 0,
            "byteLength" : 3528,
            "byteOffset" : 11616
        },
        {
            "buffer" : 0,
            "byteLength" : 4356,
            "byteOffset" : 15144
        },
        {
            "buffer" : 0,
            "byteLength" : 4356,
            "byteOffset" : 19500
        },
        {
            "buffer" : 0,
            "byteLength" : 2904,
            "byteOffset" : 23856
        },
        {
            "buffer" : 0,
            "byteLength" : 4356,
            "byteOffset" : 26760
        },
        {
            "buffer" : 0,
            "byteLength" : 4356,
            "byteOffset" : 31116
        },
        {
            "buffer" : 0,
            "byteLength" : 2904,
            "byteOffset" : 35472
        },
        {
            "buffer" : 0,
            "byteLength" : 4356,
            "byteOffset" : 38376
        },
        {
            "buffer" : 0,
            "byteLength" : 4356,
            "byteOffset" : 42732
        },
        {
            "buffer" : 0,
            "byteLength" : 2904,
            "byteOffset" : 47088
        },
        {
            "buffer" : 0,
            "byteLength" : 14112,
            "byteOffset" : 49992
        },
        {
            "buffer" : 0,
            "byteLength" : 14112,
            "byteOffset" : 64104
        },
        {
            "buffer" : 0,
            "byteLength" : 9408,
            "byteOffset" : 78216
        },
        {
            "buffer" : 0,
            "byteLength" : 3528,
            "byteOffset" : 87624
        },
        {
            "buffer" : 0,
            "byteLength" : 288,
            "byteOffset" : 91152
        },
        {
            "buffer" : 0,
            "byteLength" : 288,
            "byteOffset" : 91440
        },
        {
            "buffer" : 0,
            "byteLength" : 192,
            "byteOffset" : 91728
        },
        {
            "buffer" : 0,
            "byteLength" : 72,
            "byteOffset" : 91920
        }
    ],
    "buffers" : [
        {
            "byteLength" : 91992,
            "uri" : "data:application/octet-stream;base64,"
        }
    ]
}
